<?xml version="1.0" encoding="utf-8" standalone="no"?>
<!DOCTYPE svg PUBLIC "-//W3C//DTD SVG 1.1//EN"
  "http://www.w3.org/Graphics/SVG/1.1/DTD/svg11.dtd">
<svg xmlns:xlink="http://www.w3.org/1999/xlink" width="1036.8pt" height="648pt" viewBox="0 0 1036.8 648" xmlns="http://www.w3.org/2000/svg" version="1.1">
 <metadata>
  <rdf:RDF xmlns:dc="http://purl.org/dc/elements/1.1/" xmlns:cc="http://creativecommons.org/ns#" xmlns:rdf="http://www.w3.org/1999/02/22-rdf-syntax-ns#">
   <cc:Work>
    <dc:type rdf:resource="http://purl.org/dc/dcmitype/StillImage"/>
    <dc:date>2025-06-17T08:09:31.927644</dc:date>
    <dc:format>image/svg+xml</dc:format>
    <dc:creator>
     <cc:Agent>
      <dc:title>Matplotlib v3.5.3, https://matplotlib.org/</dc:title>
     </cc:Agent>
    </dc:creator>
   </cc:Work>
  </rdf:RDF>
 </metadata>
 <defs>
  <style type="text/css">*{stroke-linejoin: round; stroke-linecap: butt}</style>
 </defs>
 <g id="figure_1">
  <g id="patch_1">
   <path d="M 0 648 
L 1036.8 648 
L 1036.8 0 
L 0 0 
L 0 648 
z
" style="fill: none"/>
  </g>
  <g id="axes_1">
   <g id="patch_2">
    <path d="M 59.678 196.364 
L 274.412209 196.364 
L 274.412209 45.888 
L 59.678 45.888 
L 59.678 196.364 
z
" style="fill: none"/>
   </g>
   <g id="matplotlib.axis_1">
    <g id="xtick_1"/>
    <g id="xtick_2"/>
    <g id="xtick_3"/>
    <g id="xtick_4"/>
   </g>
   <g id="matplotlib.axis_2">
    <g id="ytick_1">
     <g id="text_1">
      <!-- 0.0 -->
      <g style="fill: #262626" transform="translate(23.323313 187.752472)scale(0.15 -0.15)">
       <defs>
        <path id="DejaVuSans-30" d="M 2034 4250 
Q 1547 4250 1301 3770 
Q 1056 3291 1056 2328 
Q 1056 1369 1301 889 
Q 1547 409 2034 409 
Q 2525 409 2770 889 
Q 3016 1369 3016 2328 
Q 3016 3291 2770 3770 
Q 2525 4250 2034 4250 
z
M 2034 4750 
Q 2819 4750 3233 4129 
Q 3647 3509 3647 2328 
Q 3647 1150 3233 529 
Q 2819 -91 2034 -91 
Q 1250 -91 836 529 
Q 422 1150 422 2328 
Q 422 3509 836 4129 
Q 1250 4750 2034 4750 
z
" transform="scale(0.015625)"/>
        <path id="DejaVuSans-2e" d="M 684 794 
L 1344 794 
L 1344 0 
L 684 0 
L 684 794 
z
" transform="scale(0.015625)"/>
       </defs>
       <use xlink:href="#DejaVuSans-30"/>
       <use xlink:href="#DejaVuSans-2e" x="63.623047"/>
       <use xlink:href="#DejaVuSans-30" x="95.410156"/>
      </g>
     </g>
    </g>
    <g id="ytick_2">
     <g id="text_2">
      <!-- 0.2 -->
      <g style="fill: #262626" transform="translate(23.323313 157.307798)scale(0.15 -0.15)">
       <defs>
        <path id="DejaVuSans-32" d="M 1228 531 
L 3431 531 
L 3431 0 
L 469 0 
L 469 531 
Q 828 903 1448 1529 
Q 2069 2156 2228 2338 
Q 2531 2678 2651 2914 
Q 2772 3150 2772 3378 
Q 2772 3750 2511 3984 
Q 2250 4219 1831 4219 
Q 1534 4219 1204 4116 
Q 875 4013 500 3803 
L 500 4441 
Q 881 4594 1212 4672 
Q 1544 4750 1819 4750 
Q 2544 4750 2975 4387 
Q 3406 4025 3406 3419 
Q 3406 3131 3298 2873 
Q 3191 2616 2906 2266 
Q 2828 2175 2409 1742 
Q 1991 1309 1228 531 
z
" transform="scale(0.015625)"/>
       </defs>
       <use xlink:href="#DejaVuSans-30"/>
       <use xlink:href="#DejaVuSans-2e" x="63.623047"/>
       <use xlink:href="#DejaVuSans-32" x="95.410156"/>
      </g>
     </g>
    </g>
    <g id="ytick_3">
     <g id="text_3">
      <!-- 0.4 -->
      <g style="fill: #262626" transform="translate(23.323313 126.863124)scale(0.15 -0.15)">
       <defs>
        <path id="DejaVuSans-34" d="M 2419 4116 
L 825 1625 
L 2419 1625 
L 2419 4116 
z
M 2253 4666 
L 3047 4666 
L 3047 1625 
L 3713 1625 
L 3713 1100 
L 3047 1100 
L 3047 0 
L 2419 0 
L 2419 1100 
L 313 1100 
L 313 1709 
L 2253 4666 
z
" transform="scale(0.015625)"/>
       </defs>
       <use xlink:href="#DejaVuSans-30"/>
       <use xlink:href="#DejaVuSans-2e" x="63.623047"/>
       <use xlink:href="#DejaVuSans-34" x="95.410156"/>
      </g>
     </g>
    </g>
    <g id="ytick_4">
     <g id="text_4">
      <!-- 0.6 -->
      <g style="fill: #262626" transform="translate(23.323313 96.418449)scale(0.15 -0.15)">
       <defs>
        <path id="DejaVuSans-36" d="M 2113 2584 
Q 1688 2584 1439 2293 
Q 1191 2003 1191 1497 
Q 1191 994 1439 701 
Q 1688 409 2113 409 
Q 2538 409 2786 701 
Q 3034 994 3034 1497 
Q 3034 2003 2786 2293 
Q 2538 2584 2113 2584 
z
M 3366 4563 
L 3366 3988 
Q 3128 4100 2886 4159 
Q 2644 4219 2406 4219 
Q 1781 4219 1451 3797 
Q 1122 3375 1075 2522 
Q 1259 2794 1537 2939 
Q 1816 3084 2150 3084 
Q 2853 3084 3261 2657 
Q 3669 2231 3669 1497 
Q 3669 778 3244 343 
Q 2819 -91 2113 -91 
Q 1303 -91 875 529 
Q 447 1150 447 2328 
Q 447 3434 972 4092 
Q 1497 4750 2381 4750 
Q 2619 4750 2861 4703 
Q 3103 4656 3366 4563 
z
" transform="scale(0.015625)"/>
       </defs>
       <use xlink:href="#DejaVuSans-30"/>
       <use xlink:href="#DejaVuSans-2e" x="63.623047"/>
       <use xlink:href="#DejaVuSans-36" x="95.410156"/>
      </g>
     </g>
    </g>
    <g id="ytick_5">
     <g id="text_5">
      <!-- 0.8 -->
      <g style="fill: #262626" transform="translate(23.323313 65.973775)scale(0.15 -0.15)">
       <defs>
        <path id="DejaVuSans-38" d="M 2034 2216 
Q 1584 2216 1326 1975 
Q 1069 1734 1069 1313 
Q 1069 891 1326 650 
Q 1584 409 2034 409 
Q 2484 409 2743 651 
Q 3003 894 3003 1313 
Q 3003 1734 2745 1975 
Q 2488 2216 2034 2216 
z
M 1403 2484 
Q 997 2584 770 2862 
Q 544 3141 544 3541 
Q 544 4100 942 4425 
Q 1341 4750 2034 4750 
Q 2731 4750 3128 4425 
Q 3525 4100 3525 3541 
Q 3525 3141 3298 2862 
Q 3072 2584 2669 2484 
Q 3125 2378 3379 2068 
Q 3634 1759 3634 1313 
Q 3634 634 3220 271 
Q 2806 -91 2034 -91 
Q 1263 -91 848 271 
Q 434 634 434 1313 
Q 434 1759 690 2068 
Q 947 2378 1403 2484 
z
M 1172 3481 
Q 1172 3119 1398 2916 
Q 1625 2713 2034 2713 
Q 2441 2713 2670 2916 
Q 2900 3119 2900 3481 
Q 2900 3844 2670 4047 
Q 2441 4250 2034 4250 
Q 1625 4250 1398 4047 
Q 1172 3844 1172 3481 
z
" transform="scale(0.015625)"/>
       </defs>
       <use xlink:href="#DejaVuSans-30"/>
       <use xlink:href="#DejaVuSans-2e" x="63.623047"/>
       <use xlink:href="#DejaVuSans-38" x="95.410156"/>
      </g>
     </g>
    </g>
   </g>
   <g id="PolyCollection_1">
    <defs>
     <path id="m712881d00c" d="M 69.438646 -458.530715 
L 69.438646 -458.475818 
L 134.509618 -463.778783 
L 199.580591 -466.865664 
L 264.651563 -470.028574 
L 264.651563 -470.070913 
L 264.651563 -470.070913 
L 199.580591 -466.900189 
L 134.509618 -463.818112 
L 69.438646 -458.530715 
z
" style="stroke: #808080; stroke-opacity: 0.2; stroke-width: 1.5"/>
    </defs>
    <g clip-path="url(#p292c817674)">
     <use xlink:href="#m712881d00c" x="0" y="648" style="fill: #808080; fill-opacity: 0.2; stroke: #808080; stroke-opacity: 0.2; stroke-width: 1.5"/>
    </g>
   </g>
   <g id="line2d_1">
    <path d="M 69.438646 189.496123 
L 134.509618 184.201526 
L 199.580591 181.117364 
L 264.651563 177.950166 
" clip-path="url(#p292c817674)" style="fill: none; stroke: #808080; stroke-width: 3; stroke-linecap: round"/>
   </g>
   <g id="patch_3">
    <path d="M 59.678 196.364 
L 59.678 45.888 
" style="fill: none; stroke: #262626; stroke-width: 1.875; stroke-linejoin: miter; stroke-linecap: square"/>
   </g>
   <g id="patch_4">
    <path d="M 59.678 196.364 
L 274.412209 196.364 
" style="fill: none; stroke: #262626; stroke-width: 1.875; stroke-linejoin: miter; stroke-linecap: square"/>
   </g>
   <g id="text_6">
    <!-- Cluster 0 -->
    <g style="fill: #262626" transform="translate(118.409667 39.888)scale(0.216 -0.216)">
     <defs>
      <path id="DejaVuSans-43" d="M 4122 4306 
L 4122 3641 
Q 3803 3938 3442 4084 
Q 3081 4231 2675 4231 
Q 1875 4231 1450 3742 
Q 1025 3253 1025 2328 
Q 1025 1406 1450 917 
Q 1875 428 2675 428 
Q 3081 428 3442 575 
Q 3803 722 4122 1019 
L 4122 359 
Q 3791 134 3420 21 
Q 3050 -91 2638 -91 
Q 1578 -91 968 557 
Q 359 1206 359 2328 
Q 359 3453 968 4101 
Q 1578 4750 2638 4750 
Q 3056 4750 3426 4639 
Q 3797 4528 4122 4306 
z
" transform="scale(0.015625)"/>
      <path id="DejaVuSans-6c" d="M 603 4863 
L 1178 4863 
L 1178 0 
L 603 0 
L 603 4863 
z
" transform="scale(0.015625)"/>
      <path id="DejaVuSans-75" d="M 544 1381 
L 544 3500 
L 1119 3500 
L 1119 1403 
Q 1119 906 1312 657 
Q 1506 409 1894 409 
Q 2359 409 2629 706 
Q 2900 1003 2900 1516 
L 2900 3500 
L 3475 3500 
L 3475 0 
L 2900 0 
L 2900 538 
Q 2691 219 2414 64 
Q 2138 -91 1772 -91 
Q 1169 -91 856 284 
Q 544 659 544 1381 
z
M 1991 3584 
L 1991 3584 
z
" transform="scale(0.015625)"/>
      <path id="DejaVuSans-73" d="M 2834 3397 
L 2834 2853 
Q 2591 2978 2328 3040 
Q 2066 3103 1784 3103 
Q 1356 3103 1142 2972 
Q 928 2841 928 2578 
Q 928 2378 1081 2264 
Q 1234 2150 1697 2047 
L 1894 2003 
Q 2506 1872 2764 1633 
Q 3022 1394 3022 966 
Q 3022 478 2636 193 
Q 2250 -91 1575 -91 
Q 1294 -91 989 -36 
Q 684 19 347 128 
L 347 722 
Q 666 556 975 473 
Q 1284 391 1588 391 
Q 1994 391 2212 530 
Q 2431 669 2431 922 
Q 2431 1156 2273 1281 
Q 2116 1406 1581 1522 
L 1381 1569 
Q 847 1681 609 1914 
Q 372 2147 372 2553 
Q 372 3047 722 3315 
Q 1072 3584 1716 3584 
Q 2034 3584 2315 3537 
Q 2597 3491 2834 3397 
z
" transform="scale(0.015625)"/>
      <path id="DejaVuSans-74" d="M 1172 4494 
L 1172 3500 
L 2356 3500 
L 2356 3053 
L 1172 3053 
L 1172 1153 
Q 1172 725 1289 603 
Q 1406 481 1766 481 
L 2356 481 
L 2356 0 
L 1766 0 
Q 1100 0 847 248 
Q 594 497 594 1153 
L 594 3053 
L 172 3053 
L 172 3500 
L 594 3500 
L 594 4494 
L 1172 4494 
z
" transform="scale(0.015625)"/>
      <path id="DejaVuSans-65" d="M 3597 1894 
L 3597 1613 
L 953 1613 
Q 991 1019 1311 708 
Q 1631 397 2203 397 
Q 2534 397 2845 478 
Q 3156 559 3463 722 
L 3463 178 
Q 3153 47 2828 -22 
Q 2503 -91 2169 -91 
Q 1331 -91 842 396 
Q 353 884 353 1716 
Q 353 2575 817 3079 
Q 1281 3584 2069 3584 
Q 2775 3584 3186 3129 
Q 3597 2675 3597 1894 
z
M 3022 2063 
Q 3016 2534 2758 2815 
Q 2500 3097 2075 3097 
Q 1594 3097 1305 2825 
Q 1016 2553 972 2059 
L 3022 2063 
z
" transform="scale(0.015625)"/>
      <path id="DejaVuSans-72" d="M 2631 2963 
Q 2534 3019 2420 3045 
Q 2306 3072 2169 3072 
Q 1681 3072 1420 2755 
Q 1159 2438 1159 1844 
L 1159 0 
L 581 0 
L 581 3500 
L 1159 3500 
L 1159 2956 
Q 1341 3275 1631 3429 
Q 1922 3584 2338 3584 
Q 2397 3584 2469 3576 
Q 2541 3569 2628 3553 
L 2631 2963 
z
" transform="scale(0.015625)"/>
      <path id="DejaVuSans-20" transform="scale(0.015625)"/>
     </defs>
     <use xlink:href="#DejaVuSans-43"/>
     <use xlink:href="#DejaVuSans-6c" x="69.824219"/>
     <use xlink:href="#DejaVuSans-75" x="97.607422"/>
     <use xlink:href="#DejaVuSans-73" x="160.986328"/>
     <use xlink:href="#DejaVuSans-74" x="213.085938"/>
     <use xlink:href="#DejaVuSans-65" x="252.294922"/>
     <use xlink:href="#DejaVuSans-72" x="313.818359"/>
     <use xlink:href="#DejaVuSans-20" x="354.931641"/>
     <use xlink:href="#DejaVuSans-30" x="386.71875"/>
    </g>
   </g>
  </g>
  <g id="axes_2">
   <g id="patch_5">
    <path d="M 304.731113 196.364 
L 519.465322 196.364 
L 519.465322 45.888 
L 304.731113 45.888 
L 304.731113 196.364 
z
" style="fill: none"/>
   </g>
   <g id="matplotlib.axis_3">
    <g id="xtick_5"/>
    <g id="xtick_6"/>
    <g id="xtick_7"/>
    <g id="xtick_8"/>
   </g>
   <g id="matplotlib.axis_4">
    <g id="ytick_6"/>
    <g id="ytick_7"/>
    <g id="ytick_8"/>
    <g id="ytick_9"/>
    <g id="ytick_10"/>
   </g>
   <g id="PolyCollection_2">
    <defs>
     <path id="md7fc3eece7" d="M 314.491759 -468.444433 
L 314.491759 -467.977125 
L 379.562731 -475.579292 
L 444.633704 -553.092925 
L 509.704676 -563.330394 
L 509.704676 -564.037693 
L 509.704676 -564.037693 
L 444.633704 -553.925015 
L 379.562731 -476.145495 
L 314.491759 -468.444433 
z
" style="stroke: #808080; stroke-opacity: 0.2; stroke-width: 1.5"/>
    </defs>
    <g clip-path="url(#pf14fd9acbf)">
     <use xlink:href="#md7fc3eece7" x="0" y="648" style="fill: #808080; fill-opacity: 0.2; stroke: #808080; stroke-opacity: 0.2; stroke-width: 1.5"/>
    </g>
   </g>
   <g id="line2d_2">
    <path d="M 314.491759 179.787943 
L 379.562731 172.136175 
L 444.633704 94.467892 
L 509.704676 84.296966 
" clip-path="url(#pf14fd9acbf)" style="fill: none; stroke: #808080; stroke-width: 3; stroke-linecap: round"/>
   </g>
   <g id="patch_6">
    <path d="M 304.731113 196.364 
L 304.731113 45.888 
" style="fill: none; stroke: #262626; stroke-width: 1.875; stroke-linejoin: miter; stroke-linecap: square"/>
   </g>
   <g id="patch_7">
    <path d="M 304.731113 196.364 
L 519.465322 196.364 
" style="fill: none; stroke: #262626; stroke-width: 1.875; stroke-linejoin: miter; stroke-linecap: square"/>
   </g>
   <g id="text_7">
    <!-- Cluster 1 -->
    <g style="fill: #262626" transform="translate(363.46278 39.888)scale(0.216 -0.216)">
     <defs>
      <path id="DejaVuSans-31" d="M 794 531 
L 1825 531 
L 1825 4091 
L 703 3866 
L 703 4441 
L 1819 4666 
L 2450 4666 
L 2450 531 
L 3481 531 
L 3481 0 
L 794 0 
L 794 531 
z
" transform="scale(0.015625)"/>
     </defs>
     <use xlink:href="#DejaVuSans-43"/>
     <use xlink:href="#DejaVuSans-6c" x="69.824219"/>
     <use xlink:href="#DejaVuSans-75" x="97.607422"/>
     <use xlink:href="#DejaVuSans-73" x="160.986328"/>
     <use xlink:href="#DejaVuSans-74" x="213.085938"/>
     <use xlink:href="#DejaVuSans-65" x="252.294922"/>
     <use xlink:href="#DejaVuSans-72" x="313.818359"/>
     <use xlink:href="#DejaVuSans-20" x="354.931641"/>
     <use xlink:href="#DejaVuSans-31" x="386.71875"/>
    </g>
   </g>
  </g>
  <g id="axes_3">
   <g id="patch_8">
    <path d="M 549.784226 196.364 
L 764.518435 196.364 
L 764.518435 45.888 
L 549.784226 45.888 
L 549.784226 196.364 
z
" style="fill: none"/>
   </g>
   <g id="matplotlib.axis_5">
    <g id="xtick_9"/>
    <g id="xtick_10"/>
    <g id="xtick_11"/>
    <g id="xtick_12"/>
   </g>
   <g id="matplotlib.axis_6">
    <g id="ytick_11"/>
    <g id="ytick_12"/>
    <g id="ytick_13"/>
    <g id="ytick_14"/>
    <g id="ytick_15"/>
   </g>
   <g id="PolyCollection_3">
    <defs>
     <path id="m7102a5884d" d="M 559.544872 -533.511706 
L 559.544872 -533.026172 
L 624.615844 -552.699919 
L 689.686817 -564.148761 
L 754.757789 -572.840899 
L 754.757789 -573.27997 
L 754.757789 -573.27997 
L 689.686817 -564.659129 
L 624.615844 -553.198494 
L 559.544872 -533.511706 
z
" style="stroke: #808080; stroke-opacity: 0.2; stroke-width: 1.5"/>
    </defs>
    <g clip-path="url(#pe1a7c41e0e)">
     <use xlink:href="#m7102a5884d" x="0" y="648" style="fill: #808080; fill-opacity: 0.2; stroke: #808080; stroke-opacity: 0.2; stroke-width: 1.5"/>
    </g>
   </g>
   <g id="line2d_3">
    <path d="M 559.544872 114.726595 
L 624.615844 95.044858 
L 689.686817 83.600334 
L 754.757789 74.934909 
" clip-path="url(#pe1a7c41e0e)" style="fill: none; stroke: #808080; stroke-width: 3; stroke-linecap: round"/>
   </g>
   <g id="patch_9">
    <path d="M 549.784226 196.364 
L 549.784226 45.888 
" style="fill: none; stroke: #262626; stroke-width: 1.875; stroke-linejoin: miter; stroke-linecap: square"/>
   </g>
   <g id="patch_10">
    <path d="M 549.784226 196.364 
L 764.518435 196.364 
" style="fill: none; stroke: #262626; stroke-width: 1.875; stroke-linejoin: miter; stroke-linecap: square"/>
   </g>
   <g id="text_8">
    <!-- Cluster 2 -->
    <g style="fill: #262626" transform="translate(608.515893 39.888)scale(0.216 -0.216)">
     <use xlink:href="#DejaVuSans-43"/>
     <use xlink:href="#DejaVuSans-6c" x="69.824219"/>
     <use xlink:href="#DejaVuSans-75" x="97.607422"/>
     <use xlink:href="#DejaVuSans-73" x="160.986328"/>
     <use xlink:href="#DejaVuSans-74" x="213.085938"/>
     <use xlink:href="#DejaVuSans-65" x="252.294922"/>
     <use xlink:href="#DejaVuSans-72" x="313.818359"/>
     <use xlink:href="#DejaVuSans-20" x="354.931641"/>
     <use xlink:href="#DejaVuSans-32" x="386.71875"/>
    </g>
   </g>
  </g>
  <g id="axes_4">
   <g id="patch_11">
    <path d="M 794.837339 196.364 
L 1009.571548 196.364 
L 1009.571548 45.888 
L 794.837339 45.888 
L 794.837339 196.364 
z
" style="fill: none"/>
   </g>
   <g id="matplotlib.axis_7">
    <g id="xtick_13"/>
    <g id="xtick_14"/>
    <g id="xtick_15"/>
    <g id="xtick_16"/>
   </g>
   <g id="matplotlib.axis_8">
    <g id="ytick_16"/>
    <g id="ytick_17"/>
    <g id="ytick_18"/>
    <g id="ytick_19"/>
    <g id="ytick_20"/>
   </g>
   <g id="PolyCollection_4">
    <defs>
     <path id="m316a9704f1" d="M 804.597985 -466.802783 
L 804.597985 -466.642578 
L 869.668957 -475.469629 
L 934.73993 -490.102123 
L 999.810902 -505.365638 
L 999.810902 -505.558605 
L 999.810902 -505.558605 
L 934.73993 -490.314564 
L 869.668957 -475.654343 
L 804.597985 -466.802783 
z
" style="stroke: #808080; stroke-opacity: 0.2; stroke-width: 1.5"/>
    </defs>
    <g clip-path="url(#pa9947b4bfa)">
     <use xlink:href="#m316a9704f1" x="0" y="648" style="fill: #808080; fill-opacity: 0.2; stroke: #808080; stroke-opacity: 0.2; stroke-width: 1.5"/>
    </g>
   </g>
   <g id="line2d_4">
    <path d="M 804.597985 181.278946 
L 869.668957 172.437906 
L 934.73993 157.793591 
L 999.810902 142.536827 
" clip-path="url(#pa9947b4bfa)" style="fill: none; stroke: #808080; stroke-width: 3; stroke-linecap: round"/>
   </g>
   <g id="patch_12">
    <path d="M 794.837339 196.364 
L 794.837339 45.888 
" style="fill: none; stroke: #262626; stroke-width: 1.875; stroke-linejoin: miter; stroke-linecap: square"/>
   </g>
   <g id="patch_13">
    <path d="M 794.837339 196.364 
L 1009.571548 196.364 
" style="fill: none; stroke: #262626; stroke-width: 1.875; stroke-linejoin: miter; stroke-linecap: square"/>
   </g>
   <g id="text_9">
    <!-- Cluster 3 -->
    <g style="fill: #262626" transform="translate(853.569006 39.888)scale(0.216 -0.216)">
     <defs>
      <path id="DejaVuSans-33" d="M 2597 2516 
Q 3050 2419 3304 2112 
Q 3559 1806 3559 1356 
Q 3559 666 3084 287 
Q 2609 -91 1734 -91 
Q 1441 -91 1130 -33 
Q 819 25 488 141 
L 488 750 
Q 750 597 1062 519 
Q 1375 441 1716 441 
Q 2309 441 2620 675 
Q 2931 909 2931 1356 
Q 2931 1769 2642 2001 
Q 2353 2234 1838 2234 
L 1294 2234 
L 1294 2753 
L 1863 2753 
Q 2328 2753 2575 2939 
Q 2822 3125 2822 3475 
Q 2822 3834 2567 4026 
Q 2313 4219 1838 4219 
Q 1578 4219 1281 4162 
Q 984 4106 628 3988 
L 628 4550 
Q 988 4650 1302 4700 
Q 1616 4750 1894 4750 
Q 2613 4750 3031 4423 
Q 3450 4097 3450 3541 
Q 3450 3153 3228 2886 
Q 3006 2619 2597 2516 
z
" transform="scale(0.015625)"/>
     </defs>
     <use xlink:href="#DejaVuSans-43"/>
     <use xlink:href="#DejaVuSans-6c" x="69.824219"/>
     <use xlink:href="#DejaVuSans-75" x="97.607422"/>
     <use xlink:href="#DejaVuSans-73" x="160.986328"/>
     <use xlink:href="#DejaVuSans-74" x="213.085938"/>
     <use xlink:href="#DejaVuSans-65" x="252.294922"/>
     <use xlink:href="#DejaVuSans-72" x="313.818359"/>
     <use xlink:href="#DejaVuSans-20" x="354.931641"/>
     <use xlink:href="#DejaVuSans-33" x="386.71875"/>
    </g>
   </g>
  </g>
  <g id="axes_5">
   <g id="patch_14">
    <path d="M 59.678 397.068 
L 274.412209 397.068 
L 274.412209 246.592 
L 59.678 246.592 
L 59.678 397.068 
z
" style="fill: none"/>
   </g>
   <g id="matplotlib.axis_9">
    <g id="xtick_17"/>
    <g id="xtick_18"/>
    <g id="xtick_19"/>
    <g id="xtick_20"/>
   </g>
   <g id="matplotlib.axis_10">
    <g id="ytick_21">
     <g id="text_10">
      <!-- 0.0 -->
      <g style="fill: #262626" transform="translate(23.323313 388.456472)scale(0.15 -0.15)">
       <use xlink:href="#DejaVuSans-30"/>
       <use xlink:href="#DejaVuSans-2e" x="63.623047"/>
       <use xlink:href="#DejaVuSans-30" x="95.410156"/>
      </g>
     </g>
    </g>
    <g id="ytick_22">
     <g id="text_11">
      <!-- 0.2 -->
      <g style="fill: #262626" transform="translate(23.323313 358.011798)scale(0.15 -0.15)">
       <use xlink:href="#DejaVuSans-30"/>
       <use xlink:href="#DejaVuSans-2e" x="63.623047"/>
       <use xlink:href="#DejaVuSans-32" x="95.410156"/>
      </g>
     </g>
    </g>
    <g id="ytick_23">
     <g id="text_12">
      <!-- 0.4 -->
      <g style="fill: #262626" transform="translate(23.323313 327.567124)scale(0.15 -0.15)">
       <use xlink:href="#DejaVuSans-30"/>
       <use xlink:href="#DejaVuSans-2e" x="63.623047"/>
       <use xlink:href="#DejaVuSans-34" x="95.410156"/>
      </g>
     </g>
    </g>
    <g id="ytick_24">
     <g id="text_13">
      <!-- 0.6 -->
      <g style="fill: #262626" transform="translate(23.323313 297.122449)scale(0.15 -0.15)">
       <use xlink:href="#DejaVuSans-30"/>
       <use xlink:href="#DejaVuSans-2e" x="63.623047"/>
       <use xlink:href="#DejaVuSans-36" x="95.410156"/>
      </g>
     </g>
    </g>
    <g id="ytick_25">
     <g id="text_14">
      <!-- 0.8 -->
      <g style="fill: #262626" transform="translate(23.323313 266.677775)scale(0.15 -0.15)">
       <use xlink:href="#DejaVuSans-30"/>
       <use xlink:href="#DejaVuSans-2e" x="63.623047"/>
       <use xlink:href="#DejaVuSans-38" x="95.410156"/>
      </g>
     </g>
    </g>
   </g>
   <g id="PolyCollection_5">
    <defs>
     <path id="m0233d84241" d="M 69.438646 -364.121783 
L 69.438646 -363.337513 
L 134.509618 -383.27995 
L 199.580591 -390.589211 
L 264.651563 -394.202988 
L 264.651563 -394.568182 
L 264.651563 -394.568182 
L 199.580591 -390.985225 
L 134.509618 -383.740263 
L 69.438646 -364.121783 
z
" style="stroke: #808080; stroke-opacity: 0.2; stroke-width: 1.5"/>
    </defs>
    <g clip-path="url(#pe15a17a600)">
     <use xlink:href="#m0233d84241" x="0" y="648" style="fill: #808080; fill-opacity: 0.2; stroke: #808080; stroke-opacity: 0.2; stroke-width: 1.5"/>
    </g>
   </g>
   <g id="line2d_5">
    <path d="M 69.438646 284.26971 
L 134.509618 264.485264 
L 199.580591 257.215437 
L 264.651563 253.614367 
" clip-path="url(#pe15a17a600)" style="fill: none; stroke: #808080; stroke-width: 3; stroke-linecap: round"/>
   </g>
   <g id="patch_15">
    <path d="M 59.678 397.068 
L 59.678 246.592 
" style="fill: none; stroke: #262626; stroke-width: 1.875; stroke-linejoin: miter; stroke-linecap: square"/>
   </g>
   <g id="patch_16">
    <path d="M 59.678 397.068 
L 274.412209 397.068 
" style="fill: none; stroke: #262626; stroke-width: 1.875; stroke-linejoin: miter; stroke-linecap: square"/>
   </g>
   <g id="text_15">
    <!-- Cluster 4 -->
    <g style="fill: #262626" transform="translate(118.409667 240.592)scale(0.216 -0.216)">
     <use xlink:href="#DejaVuSans-43"/>
     <use xlink:href="#DejaVuSans-6c" x="69.824219"/>
     <use xlink:href="#DejaVuSans-75" x="97.607422"/>
     <use xlink:href="#DejaVuSans-73" x="160.986328"/>
     <use xlink:href="#DejaVuSans-74" x="213.085938"/>
     <use xlink:href="#DejaVuSans-65" x="252.294922"/>
     <use xlink:href="#DejaVuSans-72" x="313.818359"/>
     <use xlink:href="#DejaVuSans-20" x="354.931641"/>
     <use xlink:href="#DejaVuSans-34" x="386.71875"/>
    </g>
   </g>
  </g>
  <g id="axes_6">
   <g id="patch_17">
    <path d="M 304.731113 397.068 
L 519.465322 397.068 
L 519.465322 246.592 
L 304.731113 246.592 
L 304.731113 397.068 
z
" style="fill: none"/>
   </g>
   <g id="matplotlib.axis_11">
    <g id="xtick_21"/>
    <g id="xtick_22"/>
    <g id="xtick_23"/>
    <g id="xtick_24"/>
   </g>
   <g id="matplotlib.axis_12">
    <g id="ytick_26"/>
    <g id="ytick_27"/>
    <g id="ytick_28"/>
    <g id="ytick_29"/>
    <g id="ytick_30"/>
   </g>
   <g id="PolyCollection_6">
    <defs>
     <path id="m774053110a" d="M 314.491759 -262.629092 
L 314.491759 -262.531642 
L 379.562731 -268.866717 
L 444.633704 -275.047195 
L 509.704676 -284.817866 
L 509.704676 -284.925665 
L 509.704676 -284.925665 
L 444.633704 -275.13706 
L 379.562731 -268.949875 
L 314.491759 -262.629092 
z
" style="stroke: #808080; stroke-opacity: 0.2; stroke-width: 1.5"/>
    </defs>
    <g clip-path="url(#p4ceeb2df0b)">
     <use xlink:href="#m774053110a" x="0" y="648" style="fill: #808080; fill-opacity: 0.2; stroke: #808080; stroke-opacity: 0.2; stroke-width: 1.5"/>
    </g>
   </g>
   <g id="line2d_6">
    <path d="M 314.491759 385.419891 
L 379.562731 379.090271 
L 444.633704 372.907279 
L 509.704676 363.126716 
" clip-path="url(#p4ceeb2df0b)" style="fill: none; stroke: #808080; stroke-width: 3; stroke-linecap: round"/>
   </g>
   <g id="patch_18">
    <path d="M 304.731113 397.068 
L 304.731113 246.592 
" style="fill: none; stroke: #262626; stroke-width: 1.875; stroke-linejoin: miter; stroke-linecap: square"/>
   </g>
   <g id="patch_19">
    <path d="M 304.731113 397.068 
L 519.465322 397.068 
" style="fill: none; stroke: #262626; stroke-width: 1.875; stroke-linejoin: miter; stroke-linecap: square"/>
   </g>
   <g id="text_16">
    <!-- Cluster 5 -->
    <g style="fill: #262626" transform="translate(363.46278 240.592)scale(0.216 -0.216)">
     <defs>
      <path id="DejaVuSans-35" d="M 691 4666 
L 3169 4666 
L 3169 4134 
L 1269 4134 
L 1269 2991 
Q 1406 3038 1543 3061 
Q 1681 3084 1819 3084 
Q 2600 3084 3056 2656 
Q 3513 2228 3513 1497 
Q 3513 744 3044 326 
Q 2575 -91 1722 -91 
Q 1428 -91 1123 -41 
Q 819 9 494 109 
L 494 744 
Q 775 591 1075 516 
Q 1375 441 1709 441 
Q 2250 441 2565 725 
Q 2881 1009 2881 1497 
Q 2881 1984 2565 2268 
Q 2250 2553 1709 2553 
Q 1456 2553 1204 2497 
Q 953 2441 691 2322 
L 691 4666 
z
" transform="scale(0.015625)"/>
     </defs>
     <use xlink:href="#DejaVuSans-43"/>
     <use xlink:href="#DejaVuSans-6c" x="69.824219"/>
     <use xlink:href="#DejaVuSans-75" x="97.607422"/>
     <use xlink:href="#DejaVuSans-73" x="160.986328"/>
     <use xlink:href="#DejaVuSans-74" x="213.085938"/>
     <use xlink:href="#DejaVuSans-65" x="252.294922"/>
     <use xlink:href="#DejaVuSans-72" x="313.818359"/>
     <use xlink:href="#DejaVuSans-20" x="354.931641"/>
     <use xlink:href="#DejaVuSans-35" x="386.71875"/>
    </g>
   </g>
  </g>
  <g id="axes_7">
   <g id="patch_20">
    <path d="M 549.784226 397.068 
L 764.518435 397.068 
L 764.518435 246.592 
L 549.784226 246.592 
L 549.784226 397.068 
z
" style="fill: none"/>
   </g>
   <g id="matplotlib.axis_13">
    <g id="xtick_25">
     <g id="text_17">
      <!-- 1/8 -->
      <g style="fill: #262626" transform="translate(547.474559 420.965656)scale(0.15 -0.15)">
       <defs>
        <path id="DejaVuSans-2f" d="M 1625 4666 
L 2156 4666 
L 531 -594 
L 0 -594 
L 1625 4666 
z
" transform="scale(0.015625)"/>
       </defs>
       <use xlink:href="#DejaVuSans-31"/>
       <use xlink:href="#DejaVuSans-2f" x="63.623047"/>
       <use xlink:href="#DejaVuSans-38" x="97.314453"/>
      </g>
     </g>
    </g>
    <g id="xtick_26">
     <g id="text_18">
      <!-- 1/4 -->
      <g style="fill: #262626" transform="translate(612.545532 420.965656)scale(0.15 -0.15)">
       <use xlink:href="#DejaVuSans-31"/>
       <use xlink:href="#DejaVuSans-2f" x="63.623047"/>
       <use xlink:href="#DejaVuSans-34" x="97.314453"/>
      </g>
     </g>
    </g>
    <g id="xtick_27">
     <g id="text_19">
      <!-- 1/2 -->
      <g style="fill: #262626" transform="translate(677.616504 420.965656)scale(0.15 -0.15)">
       <use xlink:href="#DejaVuSans-31"/>
       <use xlink:href="#DejaVuSans-2f" x="63.623047"/>
       <use xlink:href="#DejaVuSans-32" x="97.314453"/>
      </g>
     </g>
    </g>
    <g id="xtick_28">
     <g id="text_20">
      <!-- Full -->
      <g style="fill: #262626" transform="translate(741.936305 420.965656)scale(0.15 -0.15)">
       <defs>
        <path id="DejaVuSans-46" d="M 628 4666 
L 3309 4666 
L 3309 4134 
L 1259 4134 
L 1259 2759 
L 3109 2759 
L 3109 2228 
L 1259 2228 
L 1259 0 
L 628 0 
L 628 4666 
z
" transform="scale(0.015625)"/>
       </defs>
       <use xlink:href="#DejaVuSans-46"/>
       <use xlink:href="#DejaVuSans-75" x="52.019531"/>
       <use xlink:href="#DejaVuSans-6c" x="115.398438"/>
       <use xlink:href="#DejaVuSans-6c" x="143.181641"/>
      </g>
     </g>
    </g>
   </g>
   <g id="matplotlib.axis_14">
    <g id="ytick_31"/>
    <g id="ytick_32"/>
    <g id="ytick_33"/>
    <g id="ytick_34"/>
    <g id="ytick_35"/>
   </g>
   <g id="PolyCollection_7">
    <defs>
     <path id="mf0b800aa11" d="M 559.544872 -295.621342 
L 559.544872 -295.082861 
L 624.615844 -320.412394 
L 689.686817 -333.659249 
L 754.757789 -348.951437 
L 754.757789 -349.406171 
L 754.757789 -349.406171 
L 689.686817 -334.062731 
L 624.615844 -320.813411 
L 559.544872 -295.621342 
z
" style="stroke: #808080; stroke-opacity: 0.2; stroke-width: 1.5"/>
    </defs>
    <g clip-path="url(#pdd923f6a21)">
     <use xlink:href="#mf0b800aa11" x="0" y="648" style="fill: #808080; fill-opacity: 0.2; stroke: #808080; stroke-opacity: 0.2; stroke-width: 1.5"/>
    </g>
   </g>
   <g id="line2d_7">
    <path d="M 559.544872 352.647351 
L 624.615844 327.3913 
L 689.686817 314.137276 
L 754.757789 298.838144 
" clip-path="url(#pdd923f6a21)" style="fill: none; stroke: #808080; stroke-width: 3; stroke-linecap: round"/>
   </g>
   <g id="patch_21">
    <path d="M 549.784226 397.068 
L 549.784226 246.592 
" style="fill: none; stroke: #262626; stroke-width: 1.875; stroke-linejoin: miter; stroke-linecap: square"/>
   </g>
   <g id="patch_22">
    <path d="M 549.784226 397.068 
L 764.518435 397.068 
" style="fill: none; stroke: #262626; stroke-width: 1.875; stroke-linejoin: miter; stroke-linecap: square"/>
   </g>
   <g id="text_21">
    <!-- Cluster 6 -->
    <g style="fill: #262626" transform="translate(608.515893 240.592)scale(0.216 -0.216)">
     <use xlink:href="#DejaVuSans-43"/>
     <use xlink:href="#DejaVuSans-6c" x="69.824219"/>
     <use xlink:href="#DejaVuSans-75" x="97.607422"/>
     <use xlink:href="#DejaVuSans-73" x="160.986328"/>
     <use xlink:href="#DejaVuSans-74" x="213.085938"/>
     <use xlink:href="#DejaVuSans-65" x="252.294922"/>
     <use xlink:href="#DejaVuSans-72" x="313.818359"/>
     <use xlink:href="#DejaVuSans-20" x="354.931641"/>
     <use xlink:href="#DejaVuSans-36" x="386.71875"/>
    </g>
   </g>
  </g>
  <g id="axes_8">
   <g id="patch_23">
    <path d="M 794.837339 397.068 
L 1009.571548 397.068 
L 1009.571548 246.592 
L 794.837339 246.592 
L 794.837339 397.068 
z
" style="fill: none"/>
   </g>
   <g id="matplotlib.axis_15">
    <g id="xtick_29">
     <g id="text_22">
      <!-- 1/8 -->
      <g style="fill: #262626" transform="translate(792.527672 420.965656)scale(0.15 -0.15)">
       <use xlink:href="#DejaVuSans-31"/>
       <use xlink:href="#DejaVuSans-2f" x="63.623047"/>
       <use xlink:href="#DejaVuSans-38" x="97.314453"/>
      </g>
     </g>
    </g>
    <g id="xtick_30">
     <g id="text_23">
      <!-- 1/4 -->
      <g style="fill: #262626" transform="translate(857.598645 420.965656)scale(0.15 -0.15)">
       <use xlink:href="#DejaVuSans-31"/>
       <use xlink:href="#DejaVuSans-2f" x="63.623047"/>
       <use xlink:href="#DejaVuSans-34" x="97.314453"/>
      </g>
     </g>
    </g>
    <g id="xtick_31">
     <g id="text_24">
      <!-- 1/2 -->
      <g style="fill: #262626" transform="translate(922.669617 420.965656)scale(0.15 -0.15)">
       <use xlink:href="#DejaVuSans-31"/>
       <use xlink:href="#DejaVuSans-2f" x="63.623047"/>
       <use xlink:href="#DejaVuSans-32" x="97.314453"/>
      </g>
     </g>
    </g>
    <g id="xtick_32">
     <g id="text_25">
      <!-- Full -->
      <g style="fill: #262626" transform="translate(986.989418 420.965656)scale(0.15 -0.15)">
       <use xlink:href="#DejaVuSans-46"/>
       <use xlink:href="#DejaVuSans-75" x="52.019531"/>
       <use xlink:href="#DejaVuSans-6c" x="115.398438"/>
       <use xlink:href="#DejaVuSans-6c" x="143.181641"/>
      </g>
     </g>
    </g>
   </g>
   <g id="matplotlib.axis_16">
    <g id="ytick_36"/>
    <g id="ytick_37"/>
    <g id="ytick_38"/>
    <g id="ytick_39"/>
    <g id="ytick_40"/>
   </g>
   <g id="PolyCollection_8">
    <defs>
     <path id="m9c541ad069" d="M 804.597985 -290.899003 
L 804.597985 -290.122767 
L 869.668957 -352.093179 
L 934.73993 -370.684559 
L 999.810902 -375.177732 
L 999.810902 -375.777622 
L 999.810902 -375.777622 
L 934.73993 -371.381649 
L 869.668957 -353.043043 
L 804.597985 -290.899003 
z
" style="stroke: #808080; stroke-opacity: 0.2; stroke-width: 1.5"/>
    </defs>
    <g clip-path="url(#pc6db19893e)">
     <use xlink:href="#m9c541ad069" x="0" y="648" style="fill: #808080; fill-opacity: 0.2; stroke: #808080; stroke-opacity: 0.2; stroke-width: 1.5"/>
    </g>
   </g>
   <g id="line2d_8">
    <path d="M 804.597985 357.478063 
L 869.668957 295.450784 
L 934.73993 276.939782 
L 999.810902 272.514619 
" clip-path="url(#pc6db19893e)" style="fill: none; stroke: #808080; stroke-width: 3; stroke-linecap: round"/>
   </g>
   <g id="patch_24">
    <path d="M 794.837339 397.068 
L 794.837339 246.592 
" style="fill: none; stroke: #262626; stroke-width: 1.875; stroke-linejoin: miter; stroke-linecap: square"/>
   </g>
   <g id="patch_25">
    <path d="M 794.837339 397.068 
L 1009.571548 397.068 
" style="fill: none; stroke: #262626; stroke-width: 1.875; stroke-linejoin: miter; stroke-linecap: square"/>
   </g>
   <g id="text_26">
    <!-- Cluster 7 -->
    <g style="fill: #262626" transform="translate(853.569006 240.592)scale(0.216 -0.216)">
     <defs>
      <path id="DejaVuSans-37" d="M 525 4666 
L 3525 4666 
L 3525 4397 
L 1831 0 
L 1172 0 
L 2766 4134 
L 525 4134 
L 525 4666 
z
" transform="scale(0.015625)"/>
     </defs>
     <use xlink:href="#DejaVuSans-43"/>
     <use xlink:href="#DejaVuSans-6c" x="69.824219"/>
     <use xlink:href="#DejaVuSans-75" x="97.607422"/>
     <use xlink:href="#DejaVuSans-73" x="160.986328"/>
     <use xlink:href="#DejaVuSans-74" x="213.085938"/>
     <use xlink:href="#DejaVuSans-65" x="252.294922"/>
     <use xlink:href="#DejaVuSans-72" x="313.818359"/>
     <use xlink:href="#DejaVuSans-20" x="354.931641"/>
     <use xlink:href="#DejaVuSans-37" x="386.71875"/>
    </g>
   </g>
  </g>
  <g id="axes_9">
   <g id="patch_26">
    <path d="M 59.678 597.772 
L 274.412209 597.772 
L 274.412209 447.296 
L 59.678 447.296 
L 59.678 597.772 
z
" style="fill: none"/>
   </g>
   <g id="matplotlib.axis_17">
    <g id="xtick_33">
     <g id="text_27">
      <!-- 1/8 -->
      <g style="fill: #262626" transform="translate(57.368333 621.669656)scale(0.15 -0.15)">
       <use xlink:href="#DejaVuSans-31"/>
       <use xlink:href="#DejaVuSans-2f" x="63.623047"/>
       <use xlink:href="#DejaVuSans-38" x="97.314453"/>
      </g>
     </g>
    </g>
    <g id="xtick_34">
     <g id="text_28">
      <!-- 1/4 -->
      <g style="fill: #262626" transform="translate(122.439306 621.669656)scale(0.15 -0.15)">
       <use xlink:href="#DejaVuSans-31"/>
       <use xlink:href="#DejaVuSans-2f" x="63.623047"/>
       <use xlink:href="#DejaVuSans-34" x="97.314453"/>
      </g>
     </g>
    </g>
    <g id="xtick_35">
     <g id="text_29">
      <!-- 1/2 -->
      <g style="fill: #262626" transform="translate(187.510278 621.669656)scale(0.15 -0.15)">
       <use xlink:href="#DejaVuSans-31"/>
       <use xlink:href="#DejaVuSans-2f" x="63.623047"/>
       <use xlink:href="#DejaVuSans-32" x="97.314453"/>
      </g>
     </g>
    </g>
    <g id="xtick_36">
     <g id="text_30">
      <!-- Full -->
      <g style="fill: #262626" transform="translate(251.830079 621.669656)scale(0.15 -0.15)">
       <use xlink:href="#DejaVuSans-46"/>
       <use xlink:href="#DejaVuSans-75" x="52.019531"/>
       <use xlink:href="#DejaVuSans-6c" x="115.398438"/>
       <use xlink:href="#DejaVuSans-6c" x="143.181641"/>
      </g>
     </g>
    </g>
   </g>
   <g id="matplotlib.axis_18">
    <g id="ytick_41">
     <g id="text_31">
      <!-- 0.0 -->
      <g style="fill: #262626" transform="translate(23.323313 589.160472)scale(0.15 -0.15)">
       <use xlink:href="#DejaVuSans-30"/>
       <use xlink:href="#DejaVuSans-2e" x="63.623047"/>
       <use xlink:href="#DejaVuSans-30" x="95.410156"/>
      </g>
     </g>
    </g>
    <g id="ytick_42">
     <g id="text_32">
      <!-- 0.2 -->
      <g style="fill: #262626" transform="translate(23.323313 558.715798)scale(0.15 -0.15)">
       <use xlink:href="#DejaVuSans-30"/>
       <use xlink:href="#DejaVuSans-2e" x="63.623047"/>
       <use xlink:href="#DejaVuSans-32" x="95.410156"/>
      </g>
     </g>
    </g>
    <g id="ytick_43">
     <g id="text_33">
      <!-- 0.4 -->
      <g style="fill: #262626" transform="translate(23.323313 528.271124)scale(0.15 -0.15)">
       <use xlink:href="#DejaVuSans-30"/>
       <use xlink:href="#DejaVuSans-2e" x="63.623047"/>
       <use xlink:href="#DejaVuSans-34" x="95.410156"/>
      </g>
     </g>
    </g>
    <g id="ytick_44">
     <g id="text_34">
      <!-- 0.6 -->
      <g style="fill: #262626" transform="translate(23.323313 497.826449)scale(0.15 -0.15)">
       <use xlink:href="#DejaVuSans-30"/>
       <use xlink:href="#DejaVuSans-2e" x="63.623047"/>
       <use xlink:href="#DejaVuSans-36" x="95.410156"/>
      </g>
     </g>
    </g>
    <g id="ytick_45">
     <g id="text_35">
      <!-- 0.8 -->
      <g style="fill: #262626" transform="translate(23.323313 467.381775)scale(0.15 -0.15)">
       <use xlink:href="#DejaVuSans-30"/>
       <use xlink:href="#DejaVuSans-2e" x="63.623047"/>
       <use xlink:href="#DejaVuSans-38" x="95.410156"/>
      </g>
     </g>
    </g>
   </g>
   <g id="PolyCollection_9">
    <defs>
     <path id="m66eaf5ca56" d="M 69.438646 -65.824045 
L 69.438646 -65.441978 
L 134.509618 -72.175628 
L 199.580591 -88.214173 
L 264.651563 -144.194227 
L 264.651563 -144.862673 
L 264.651563 -144.862673 
L 199.580591 -88.851101 
L 134.509618 -72.583304 
L 69.438646 -65.824045 
z
" style="stroke: #808080; stroke-opacity: 0.2; stroke-width: 1.5"/>
    </defs>
    <g clip-path="url(#p5ec9162514)">
     <use xlink:href="#m66eaf5ca56" x="0" y="648" style="fill: #808080; fill-opacity: 0.2; stroke: #808080; stroke-opacity: 0.2; stroke-width: 1.5"/>
    </g>
   </g>
   <g id="line2d_9">
    <path d="M 69.438646 582.363506 
L 134.509618 575.623412 
L 199.580591 559.46691 
L 264.651563 503.465323 
" clip-path="url(#p5ec9162514)" style="fill: none; stroke: #808080; stroke-width: 3; stroke-linecap: round"/>
   </g>
   <g id="patch_27">
    <path d="M 59.678 597.772 
L 59.678 447.296 
" style="fill: none; stroke: #262626; stroke-width: 1.875; stroke-linejoin: miter; stroke-linecap: square"/>
   </g>
   <g id="patch_28">
    <path d="M 59.678 597.772 
L 274.412209 597.772 
" style="fill: none; stroke: #262626; stroke-width: 1.875; stroke-linejoin: miter; stroke-linecap: square"/>
   </g>
   <g id="text_36">
    <!-- Cluster 8 -->
    <g style="fill: #262626" transform="translate(118.409667 441.296)scale(0.216 -0.216)">
     <use xlink:href="#DejaVuSans-43"/>
     <use xlink:href="#DejaVuSans-6c" x="69.824219"/>
     <use xlink:href="#DejaVuSans-75" x="97.607422"/>
     <use xlink:href="#DejaVuSans-73" x="160.986328"/>
     <use xlink:href="#DejaVuSans-74" x="213.085938"/>
     <use xlink:href="#DejaVuSans-65" x="252.294922"/>
     <use xlink:href="#DejaVuSans-72" x="313.818359"/>
     <use xlink:href="#DejaVuSans-20" x="354.931641"/>
     <use xlink:href="#DejaVuSans-38" x="386.71875"/>
    </g>
   </g>
  </g>
  <g id="axes_10">
   <g id="patch_29">
    <path d="M 304.731113 597.772 
L 519.465322 597.772 
L 519.465322 447.296 
L 304.731113 447.296 
L 304.731113 597.772 
z
" style="fill: none"/>
   </g>
   <g id="matplotlib.axis_19">
    <g id="xtick_37">
     <g id="text_37">
      <!-- 1/8 -->
      <g style="fill: #262626" transform="translate(302.421446 621.669656)scale(0.15 -0.15)">
       <use xlink:href="#DejaVuSans-31"/>
       <use xlink:href="#DejaVuSans-2f" x="63.623047"/>
       <use xlink:href="#DejaVuSans-38" x="97.314453"/>
      </g>
     </g>
    </g>
    <g id="xtick_38">
     <g id="text_38">
      <!-- 1/4 -->
      <g style="fill: #262626" transform="translate(367.492419 621.669656)scale(0.15 -0.15)">
       <use xlink:href="#DejaVuSans-31"/>
       <use xlink:href="#DejaVuSans-2f" x="63.623047"/>
       <use xlink:href="#DejaVuSans-34" x="97.314453"/>
      </g>
     </g>
    </g>
    <g id="xtick_39">
     <g id="text_39">
      <!-- 1/2 -->
      <g style="fill: #262626" transform="translate(432.563391 621.669656)scale(0.15 -0.15)">
       <use xlink:href="#DejaVuSans-31"/>
       <use xlink:href="#DejaVuSans-2f" x="63.623047"/>
       <use xlink:href="#DejaVuSans-32" x="97.314453"/>
      </g>
     </g>
    </g>
    <g id="xtick_40">
     <g id="text_40">
      <!-- Full -->
      <g style="fill: #262626" transform="translate(496.883192 621.669656)scale(0.15 -0.15)">
       <use xlink:href="#DejaVuSans-46"/>
       <use xlink:href="#DejaVuSans-75" x="52.019531"/>
       <use xlink:href="#DejaVuSans-6c" x="115.398438"/>
       <use xlink:href="#DejaVuSans-6c" x="143.181641"/>
      </g>
     </g>
    </g>
   </g>
   <g id="matplotlib.axis_20">
    <g id="ytick_46"/>
    <g id="ytick_47"/>
    <g id="ytick_48"/>
    <g id="ytick_49"/>
    <g id="ytick_50"/>
   </g>
   <g id="PolyCollection_10">
    <defs>
     <path id="ma6a4b907ff" d="M 314.491759 -74.933502 
L 314.491759 -74.592946 
L 379.562731 -91.785055 
L 444.633704 -111.644913 
L 509.704676 -123.098639 
L 509.704676 -123.425265 
L 509.704676 -123.425265 
L 444.633704 -111.930686 
L 379.562731 -92.146684 
L 314.491759 -74.933502 
z
" style="stroke: #808080; stroke-opacity: 0.2; stroke-width: 1.5"/>
    </defs>
    <g clip-path="url(#p7619af7ba3)">
     <use xlink:href="#ma6a4b907ff" x="0" y="648" style="fill: #808080; fill-opacity: 0.2; stroke: #808080; stroke-opacity: 0.2; stroke-width: 1.5"/>
    </g>
   </g>
   <g id="line2d_10">
    <path d="M 314.491759 573.238334 
L 379.562731 556.0401 
L 444.633704 536.215115 
L 509.704676 524.735777 
" clip-path="url(#p7619af7ba3)" style="fill: none; stroke: #808080; stroke-width: 3; stroke-linecap: round"/>
   </g>
   <g id="patch_30">
    <path d="M 304.731113 597.772 
L 304.731113 447.296 
" style="fill: none; stroke: #262626; stroke-width: 1.875; stroke-linejoin: miter; stroke-linecap: square"/>
   </g>
   <g id="patch_31">
    <path d="M 304.731113 597.772 
L 519.465322 597.772 
" style="fill: none; stroke: #262626; stroke-width: 1.875; stroke-linejoin: miter; stroke-linecap: square"/>
   </g>
   <g id="text_41">
    <!-- Cluster 9 -->
    <g style="fill: #262626" transform="translate(363.46278 441.296)scale(0.216 -0.216)">
     <defs>
      <path id="DejaVuSans-39" d="M 703 97 
L 703 672 
Q 941 559 1184 500 
Q 1428 441 1663 441 
Q 2288 441 2617 861 
Q 2947 1281 2994 2138 
Q 2813 1869 2534 1725 
Q 2256 1581 1919 1581 
Q 1219 1581 811 2004 
Q 403 2428 403 3163 
Q 403 3881 828 4315 
Q 1253 4750 1959 4750 
Q 2769 4750 3195 4129 
Q 3622 3509 3622 2328 
Q 3622 1225 3098 567 
Q 2575 -91 1691 -91 
Q 1453 -91 1209 -44 
Q 966 3 703 97 
z
M 1959 2075 
Q 2384 2075 2632 2365 
Q 2881 2656 2881 3163 
Q 2881 3666 2632 3958 
Q 2384 4250 1959 4250 
Q 1534 4250 1286 3958 
Q 1038 3666 1038 3163 
Q 1038 2656 1286 2365 
Q 1534 2075 1959 2075 
z
" transform="scale(0.015625)"/>
     </defs>
     <use xlink:href="#DejaVuSans-43"/>
     <use xlink:href="#DejaVuSans-6c" x="69.824219"/>
     <use xlink:href="#DejaVuSans-75" x="97.607422"/>
     <use xlink:href="#DejaVuSans-73" x="160.986328"/>
     <use xlink:href="#DejaVuSans-74" x="213.085938"/>
     <use xlink:href="#DejaVuSans-65" x="252.294922"/>
     <use xlink:href="#DejaVuSans-72" x="313.818359"/>
     <use xlink:href="#DejaVuSans-20" x="354.931641"/>
     <use xlink:href="#DejaVuSans-39" x="386.71875"/>
    </g>
   </g>
  </g>
 </g>
 <defs>
  <clipPath id="p292c817674">
   <rect x="59.678" y="45.888" width="214.734209" height="150.476"/>
  </clipPath>
  <clipPath id="pf14fd9acbf">
   <rect x="304.731113" y="45.888" width="214.734209" height="150.476"/>
  </clipPath>
  <clipPath id="pe1a7c41e0e">
   <rect x="549.784226" y="45.888" width="214.734209" height="150.476"/>
  </clipPath>
  <clipPath id="pa9947b4bfa">
   <rect x="794.837339" y="45.888" width="214.734209" height="150.476"/>
  </clipPath>
  <clipPath id="pe15a17a600">
   <rect x="59.678" y="246.592" width="214.734209" height="150.476"/>
  </clipPath>
  <clipPath id="p4ceeb2df0b">
   <rect x="304.731113" y="246.592" width="214.734209" height="150.476"/>
  </clipPath>
  <clipPath id="pdd923f6a21">
   <rect x="549.784226" y="246.592" width="214.734209" height="150.476"/>
  </clipPath>
  <clipPath id="pc6db19893e">
   <rect x="794.837339" y="246.592" width="214.734209" height="150.476"/>
  </clipPath>
  <clipPath id="p5ec9162514">
   <rect x="59.678" y="447.296" width="214.734209" height="150.476"/>
  </clipPath>
  <clipPath id="p7619af7ba3">
   <rect x="304.731113" y="447.296" width="214.734209" height="150.476"/>
  </clipPath>
 </defs>
</svg>
